<?xml version="1.0" encoding="UTF-8"?>
<svg width="40px" height="40px" viewBox="0 0 40 40" version="1.1" xmlns="http://www.w3.org/2000/svg" xmlns:xlink="http://www.w3.org/1999/xlink">
    <title></title>
    <desc>Created with Sketch.</desc>
    <defs>
        <polygon id="path-1" points="0.000285714286 0 40 0 40 39.9994286 0.000285714286 39.9994286"></polygon>
    </defs>
    <g id="" stroke="none" stroke-width="1" fill="none" fill-rule="evenodd">
        <g id="" transform="translate(-69.000000, -914.000000)">
            <g id="" transform="translate(69.000000, 914.000000)">
                <g>
                    <g id="">
                        <mask id="mask-2" fill="white">
                            <use xlink:href="#path-1"></use>
                        </mask>
                        <g id="Clip-2"></g>
                        <path d="M37.0002857,27.4994286 L36.9945714,27.6651429 C36.9088571,28.9794286 35.8174286,29.9994286 34.5002857,29.9994286 L5.50028571,29.9994286 L5.33457143,29.9965714 C4.02314286,29.908 3.00028571,28.8165714 3.00028571,27.4994286 L3.00028571,5.49942857 L3.006,5.33657143 C3.09171429,4.02228571 4.18314286,2.99942857 5.50028571,2.99942857 L34.5002857,2.99942857 L34.6631429,3.00514286 C35.9774286,3.09085714 37.0002857,4.18228571 37.0002857,5.49942857 L37.0002857,27.4994286 Z M39.9945714,5.27942857 C39.8774286,2.328 37.4517143,-0.000571428571 34.5002857,-0.000571428571 L5.50028571,-0.000571428571 L5.27742857,0.00228571429 C2.32885714,0.122285714 0.000285714286,2.548 0.000285714286,5.49942857 L0.000285714286,27.4994286 L0.00314285714,27.7222857 C0.123142857,30.6708571 2.54885714,32.9994286 5.50028571,32.9994286 L18.5002857,32.9994286 L18.5002857,36.9994286 L9.50028571,36.9994286 C8.67171429,36.9994286 8.00028571,37.6708571 8.00028571,38.4994286 C8.00028571,39.328 8.67171429,39.9994286 9.50028571,39.9994286 L30.5002857,39.9994286 C31.3288571,39.9994286 32.0002857,39.328 32.0002857,38.4994286 C32.0002857,37.6708571 31.3288571,36.9994286 30.5002857,36.9994286 L21.5002857,36.9994286 L21.5002857,32.9994286 L34.5002857,32.9994286 L34.7202857,32.9965714 C37.6688571,32.8765714 40.0002857,30.4508571 40.0002857,27.4994286 L40.0002857,5.49942857 L39.9945714,5.27942857 Z" id="Fill-1" fill="#FFFFFF" mask="url(#mask-2)"></path>
                    </g>
                    <path d="M11,16.5714286 C10.2114286,16.5714286 9.57142857,17.2114286 9.57142857,18 L9.57142857,23 C9.57142857,23.7885714 10.2114286,24.4285714 11,24.4285714 C11.7885714,24.4285714 12.4285714,23.7885714 12.4285714,23 L12.4285714,18 C12.4285714,17.2114286 11.7885714,16.5714286 11,16.5714286" id="Fill-3" fill="#FFFFFF"></path>
                    <path d="M19.9997143,13.1425714 C19.2111429,13.1425714 18.5711429,13.7825714 18.5711429,14.5711429 L18.5711429,22.4282857 C18.5711429,23.2168571 19.2111429,23.8568571 19.9997143,23.8568571 C20.7882857,23.8568571 21.4282857,23.2168571 21.4282857,22.4282857 L21.4282857,14.5711429 C21.4282857,13.7825714 20.7882857,13.1425714 19.9997143,13.1425714" id="Fill-5" fill="#FFFFFF"></path>
                    <path d="M28.9994286,9.71457143 C28.2108571,9.71457143 27.5708571,10.3545714 27.5708571,11.1431429 L27.5708571,21.8574286 C27.5708571,22.6488571 28.2137143,23.286 28.9994286,23.286 C29.7908571,23.286 30.428,22.646 30.428,21.8574286 L30.428,11.1431429 C30.428,10.3545714 29.788,9.71457143 28.9994286,9.71457143" id="Fill-7" fill="#FFFFFF"></path>
                </g>
            </g>
        </g>
    </g>
</svg>